# Blender 3.5.0
# www.blender.org
mtllib untitled4.mtl
o Cube
v 1.055292 1.248439 -4.581803
v 1.055292 -0.751561 -4.581803
v 1.055292 1.248439 4.178197
v 1.055292 -0.751561 4.178197
v 0.227953 1.248439 -4.581803
v 0.227953 -0.751561 -4.581803
v 0.227953 1.248439 4.178197
v 0.227953 -0.751561 4.178197
v -2.041556 1.248439 -3.868285
v -2.041556 -0.751561 -3.868285
v 2.013684 1.248439 3.896549
v 2.013684 -0.751561 3.896549
v -2.774906 1.248439 -3.485287
v -2.774906 -0.751561 -3.485287
v 1.280334 1.248439 4.279546
v 1.280334 -0.751561 4.279546
v -4.456284 1.248439 -1.802211
v -4.456284 -0.751561 -1.802211
v 2.732817 1.248439 3.203231
v 2.732817 -0.751561 3.203231
v -4.929023 1.248439 -1.123235
v -4.929023 -0.751561 -1.123235
v 2.260077 1.248439 3.882206
v 2.260077 -0.751561 3.882206
v -5.640249 1.248439 1.146993
v -5.640249 -0.751561 1.146993
v 3.049298 1.248439 2.255771
v 3.049298 -0.751561 2.255771
v -5.744967 1.248439 1.967678
v -5.744967 -0.751561 1.967678
v 2.944580 1.248439 3.076456
v 2.944580 -0.751561 3.076456
v -5.324445 1.248439 4.309246
v -5.324445 -0.751561 4.309246
v 2.891221 1.248439 1.269438
v 2.891221 -0.751561 1.269438
v -5.037350 1.248439 5.085176
v -5.037350 -0.751561 5.085176
v 3.178316 1.248439 2.045367
v 3.178316 -0.751561 2.045367
v -3.580626 1.248439 6.966062
v -3.580626 -0.751561 6.966062
v 2.294503 1.248439 0.468334
v 2.294503 -0.751561 0.468334
v -2.966947 1.248439 7.520939
v -2.966947 -0.751561 7.520939
v 2.908181 1.248439 1.023211
v 2.908181 -0.751561 1.023211
v -0.805001 1.248439 8.513794
v -0.805001 -0.751561 8.513794
v 1.394721 1.248439 0.034475
v 1.394721 -0.751561 0.034475
v -0.004170 1.248439 8.721546
v -0.004170 -0.751561 8.721546
v 2.195550 1.248439 0.242228
v 2.195550 -0.751561 0.242228
v 2.371791 1.248439 8.600785
v 2.371791 -0.751561 8.600785
v 0.396312 1.248439 0.066438
v 0.396312 -0.751561 0.066438
v 3.177819 1.248439 8.414210
v 3.177819 -0.751561 8.414210
v 1.202339 1.248439 -0.120137
v 1.202339 -0.751561 -0.120137
v 5.227960 1.248439 7.207273
v 5.227960 -0.751561 7.207273
v -0.473877 1.248439 0.556959
v -0.473877 -0.751561 0.556959
v 5.856050 1.248439 6.668761
v 5.856050 -0.751561 6.668761
v 0.154212 1.248439 0.018449
v 0.154212 -0.751561 0.018449
v 7.114563 1.248439 4.649870
v 7.114563 -0.751561 4.649870
v -1.018134 1.248439 1.394589
v -1.018134 -0.751561 1.394589
v 7.422008 1.248439 3.881776
v 7.422008 -0.751561 3.881776
v -0.710690 1.248439 0.626497
v -0.710690 -0.751561 0.626497
v 7.602951 1.248439 1.509638
v 7.602951 -0.751561 1.509638
v -1.112800 1.248439 2.389014
v -1.112800 -0.751561 2.389014
v 7.519897 1.248439 0.686478
v 7.519897 -0.751561 0.686478
v -1.195853 1.248439 1.565855
v -1.195853 -0.751561 1.565855
v 6.582159 1.248439 -1.499939
v 6.582159 -0.751561 -1.499939
v -0.736366 1.248439 3.314291
v -0.736366 -0.751561 3.314291
v 6.127477 1.248439 -2.191139
v 6.127477 -0.751561 -2.191139
v -1.191047 1.248439 2.623093
v -1.191047 -0.751561 2.623093
v 4.284117 1.248439 -3.695067
v 4.284117 -0.751561 -3.695067
v 0.025639 1.248439 3.960192
v 0.025639 -0.751561 3.960192
v 3.561114 1.248439 -4.097259
v 3.561114 -0.751561 -4.097259
v -0.697362 1.248439 3.558001
v -0.697362 -0.751561 3.558001
vn -0.0000 -1.0000 -0.0000
vn -0.0000 -0.0000 -1.0000
vn 1.0000 -0.0000 -0.0000
vn -0.0000 1.0000 -0.0000
vn -1.0000 -0.0000 -0.0000
vn -0.0000 -0.0000 1.0000
vn -0.4629 -0.0000 -0.8864
vn 0.8864 -0.0000 -0.4629
vn -0.8864 -0.0000 0.4629
vn 0.4629 -0.0000 0.8864
vn -0.8207 -0.0000 -0.5714
vn 0.5714 -0.0000 -0.8207
vn -0.5714 -0.0000 0.8207
vn 0.8207 -0.0000 0.5714
vn -0.9920 -0.0000 -0.1266
vn 0.1266 -0.0000 -0.9920
vn -0.1266 -0.0000 0.9920
vn 0.9920 -0.0000 0.1266
vn -0.9379 -0.0000 0.3470
vn -0.3470 -0.0000 -0.9379
vn 0.3470 -0.0000 0.9379
vn 0.9379 -0.0000 -0.3470
vn -0.6707 -0.0000 0.7417
vn -0.7417 -0.0000 -0.6707
vn 0.7417 -0.0000 0.6707
vn 0.6707 -0.0000 -0.7417
vn 0.6707 -0.0000 -0.7418
vn -0.2511 -0.0000 0.9680
vn -0.9680 -0.0000 -0.2511
vn 0.9680 -0.0000 0.2511
vn 0.2511 -0.0000 -0.9680
vn 0.2255 -0.0000 0.9742
vn -0.9742 -0.0000 0.2255
vn 0.9742 -0.0000 -0.2255
vn -0.2255 -0.0000 -0.9742
vn 0.6509 -0.0000 0.7592
vn -0.7592 -0.0000 0.6509
vn 0.7592 -0.0000 -0.6509
vn -0.6509 -0.0000 -0.7592
vn 0.9284 -0.0000 0.3716
vn -0.3716 -0.0000 0.9284
vn 0.3716 -0.0000 -0.9284
vn -0.9284 -0.0000 -0.3716
vn 0.9949 -0.0000 -0.1004
vn 0.1004 -0.0000 0.9949
vn -0.1004 -0.0000 -0.9949
vn -0.9949 -0.0000 0.1004
vn 0.8354 -0.0000 -0.5496
vn 0.5496 -0.0000 0.8354
vn -0.5496 -0.0000 -0.8354
vn -0.8354 -0.0000 0.5496
vn -0.4861 -0.0000 0.8739
vn -0.8739 -0.0000 -0.4861
vn 0.8739 -0.0000 0.4861
vn 0.4861 -0.0000 -0.8739
vt 0.625000 0.500000
vt 0.375000 0.500000
vt 0.625000 0.750000
vt 0.375000 0.750000
vt 0.875000 0.500000
vt 0.625000 0.250000
vt 0.125000 0.500000
vt 0.375000 0.250000
vt 0.875000 0.750000
vt 0.625000 1.000000
vt 0.625000 0.000000
vt 0.375000 0.000000
vt 0.375000 1.000000
vt 0.125000 0.750000
vt 0.625000 0.500000
vt 0.375000 0.500000
vt 0.625000 0.750000
vt 0.375000 0.750000
vt 0.875000 0.500000
vt 0.625000 0.250000
vt 0.125000 0.500000
vt 0.375000 0.250000
vt 0.875000 0.750000
vt 0.625000 1.000000
vt 0.625000 0.000000
vt 0.375000 0.000000
vt 0.375000 1.000000
vt 0.125000 0.750000
vt 0.625000 0.500000
vt 0.375000 0.500000
vt 0.625000 0.750000
vt 0.375000 0.750000
vt 0.875000 0.500000
vt 0.625000 0.250000
vt 0.125000 0.500000
vt 0.375000 0.250000
vt 0.875000 0.750000
vt 0.625000 1.000000
vt 0.625000 0.000000
vt 0.375000 0.000000
vt 0.375000 1.000000
vt 0.125000 0.750000
vt 0.625000 0.500000
vt 0.375000 0.500000
vt 0.625000 0.750000
vt 0.375000 0.750000
vt 0.875000 0.500000
vt 0.625000 0.250000
vt 0.125000 0.500000
vt 0.375000 0.250000
vt 0.875000 0.750000
vt 0.625000 1.000000
vt 0.625000 0.000000
vt 0.375000 0.000000
vt 0.375000 1.000000
vt 0.125000 0.750000
vt 0.625000 0.500000
vt 0.375000 0.500000
vt 0.625000 0.750000
vt 0.375000 0.750000
vt 0.875000 0.500000
vt 0.625000 0.250000
vt 0.125000 0.500000
vt 0.375000 0.250000
vt 0.875000 0.750000
vt 0.625000 1.000000
vt 0.625000 0.000000
vt 0.375000 0.000000
vt 0.375000 1.000000
vt 0.125000 0.750000
vt 0.625000 0.500000
vt 0.375000 0.500000
vt 0.625000 0.750000
vt 0.375000 0.750000
vt 0.875000 0.500000
vt 0.625000 0.250000
vt 0.125000 0.500000
vt 0.375000 0.250000
vt 0.875000 0.750000
vt 0.625000 1.000000
vt 0.625000 0.000000
vt 0.375000 0.000000
vt 0.375000 1.000000
vt 0.125000 0.750000
vt 0.625000 0.500000
vt 0.375000 0.500000
vt 0.625000 0.750000
vt 0.375000 0.750000
vt 0.875000 0.500000
vt 0.625000 0.250000
vt 0.125000 0.500000
vt 0.375000 0.250000
vt 0.875000 0.750000
vt 0.625000 1.000000
vt 0.625000 0.000000
vt 0.375000 0.000000
vt 0.375000 1.000000
vt 0.125000 0.750000
vt 0.625000 0.500000
vt 0.375000 0.500000
vt 0.625000 0.750000
vt 0.375000 0.750000
vt 0.875000 0.500000
vt 0.625000 0.250000
vt 0.125000 0.500000
vt 0.375000 0.250000
vt 0.875000 0.750000
vt 0.625000 1.000000
vt 0.625000 0.000000
vt 0.375000 0.000000
vt 0.375000 1.000000
vt 0.125000 0.750000
vt 0.625000 0.500000
vt 0.375000 0.500000
vt 0.625000 0.750000
vt 0.375000 0.750000
vt 0.875000 0.500000
vt 0.625000 0.250000
vt 0.125000 0.500000
vt 0.375000 0.250000
vt 0.875000 0.750000
vt 0.625000 1.000000
vt 0.625000 0.000000
vt 0.375000 0.000000
vt 0.375000 1.000000
vt 0.125000 0.750000
vt 0.625000 0.500000
vt 0.375000 0.500000
vt 0.625000 0.750000
vt 0.375000 0.750000
vt 0.875000 0.500000
vt 0.625000 0.250000
vt 0.125000 0.500000
vt 0.375000 0.250000
vt 0.875000 0.750000
vt 0.625000 1.000000
vt 0.625000 0.000000
vt 0.375000 0.000000
vt 0.375000 1.000000
vt 0.125000 0.750000
vt 0.625000 0.500000
vt 0.375000 0.500000
vt 0.625000 0.750000
vt 0.375000 0.750000
vt 0.875000 0.500000
vt 0.625000 0.250000
vt 0.125000 0.500000
vt 0.375000 0.250000
vt 0.875000 0.750000
vt 0.625000 1.000000
vt 0.625000 0.000000
vt 0.375000 0.000000
vt 0.375000 1.000000
vt 0.125000 0.750000
vt 0.625000 0.500000
vt 0.375000 0.500000
vt 0.625000 0.750000
vt 0.375000 0.750000
vt 0.875000 0.500000
vt 0.625000 0.250000
vt 0.125000 0.500000
vt 0.375000 0.250000
vt 0.875000 0.750000
vt 0.625000 1.000000
vt 0.625000 0.000000
vt 0.375000 0.000000
vt 0.375000 1.000000
vt 0.125000 0.750000
vt 0.625000 0.500000
vt 0.375000 0.500000
vt 0.625000 0.750000
vt 0.375000 0.750000
vt 0.875000 0.500000
vt 0.625000 0.250000
vt 0.125000 0.500000
vt 0.375000 0.250000
vt 0.875000 0.750000
vt 0.625000 1.000000
vt 0.625000 0.000000
vt 0.375000 0.000000
vt 0.375000 1.000000
vt 0.125000 0.750000
s 0
usemtl Material
f 5/5/1 1/1/1 3/3/1
f 3/3/2 4/4/2 8/13/2
f 7/11/3 8/12/3 6/8/3
f 2/2/4 6/7/4 8/14/4
f 1/1/5 2/2/5 4/4/5
f 5/6/6 6/8/6 2/2/6
f 5/5/1 3/3/1 7/9/1
f 3/3/2 8/13/2 7/10/2
f 7/11/3 6/8/3 5/6/3
f 2/2/4 8/14/4 4/4/4
f 1/1/5 4/4/5 3/3/5
f 5/6/6 2/2/6 1/1/6
f 13/19/1 9/15/1 11/17/1
f 11/17/7 12/18/7 16/27/7
f 15/25/8 16/26/8 14/22/8
f 10/16/4 14/21/4 16/28/4
f 9/15/9 10/16/9 12/18/9
f 13/20/10 14/22/10 10/16/10
f 13/19/1 11/17/1 15/23/1
f 11/17/7 16/27/7 15/24/7
f 15/25/8 14/22/8 13/20/8
f 10/16/4 16/28/4 12/18/4
f 9/15/9 12/18/9 11/17/9
f 13/20/10 10/16/10 9/15/10
f 21/33/1 17/29/1 19/31/1
f 19/31/11 20/32/11 24/41/11
f 23/39/12 24/40/12 22/36/12
f 18/30/4 22/35/4 24/42/4
f 17/29/13 18/30/13 20/32/13
f 21/34/14 22/36/14 18/30/14
f 21/33/1 19/31/1 23/37/1
f 19/31/11 24/41/11 23/38/11
f 23/39/12 22/36/12 21/34/12
f 18/30/4 24/42/4 20/32/4
f 17/29/13 20/32/13 19/31/13
f 21/34/14 18/30/14 17/29/14
f 29/47/1 25/43/1 27/45/1
f 27/45/15 28/46/15 32/55/15
f 31/53/16 32/54/16 30/50/16
f 26/44/4 30/49/4 32/56/4
f 25/43/17 26/44/17 28/46/17
f 29/48/18 30/50/18 26/44/18
f 29/47/1 27/45/1 31/51/1
f 27/45/15 32/55/15 31/52/15
f 31/53/16 30/50/16 29/48/16
f 26/44/4 32/56/4 28/46/4
f 25/43/17 28/46/17 27/45/17
f 29/48/18 26/44/18 25/43/18
f 37/61/1 33/57/1 35/59/1
f 35/59/19 36/60/19 40/69/19
f 39/67/20 40/68/20 38/64/20
f 34/58/4 38/63/4 40/70/4
f 33/57/21 34/58/21 36/60/21
f 37/62/22 38/64/22 34/58/22
f 37/61/1 35/59/1 39/65/1
f 35/59/19 40/69/19 39/66/19
f 39/67/20 38/64/20 37/62/20
f 34/58/4 40/70/4 36/60/4
f 33/57/21 36/60/21 35/59/21
f 37/62/22 34/58/22 33/57/22
f 45/75/1 41/71/1 43/73/1
f 43/73/23 44/74/23 48/83/23
f 47/81/24 48/82/24 46/78/24
f 42/72/4 46/77/4 48/84/4
f 41/71/25 42/72/25 44/74/25
f 45/76/26 46/78/26 42/72/26
f 45/75/1 43/73/1 47/79/1
f 43/73/23 48/83/23 47/80/23
f 47/81/24 46/78/24 45/76/24
f 42/72/4 48/84/4 44/74/4
f 41/71/25 44/74/25 43/73/25
f 45/76/27 42/72/27 41/71/27
f 53/89/1 49/85/1 51/87/1
f 51/87/28 52/88/28 56/97/28
f 55/95/29 56/96/29 54/92/29
f 50/86/4 54/91/4 56/98/4
f 49/85/30 50/86/30 52/88/30
f 53/90/31 54/92/31 50/86/31
f 53/89/1 51/87/1 55/93/1
f 51/87/28 56/97/28 55/94/28
f 55/95/29 54/92/29 53/90/29
f 50/86/4 56/98/4 52/88/4
f 49/85/30 52/88/30 51/87/30
f 53/90/31 50/86/31 49/85/31
f 61/103/1 57/99/1 59/101/1
f 59/101/32 60/102/32 64/111/32
f 63/109/33 64/110/33 62/106/33
f 58/100/4 62/105/4 64/112/4
f 57/99/34 58/100/34 60/102/34
f 61/104/35 62/106/35 58/100/35
f 61/103/1 59/101/1 63/107/1
f 59/101/32 64/111/32 63/108/32
f 63/109/33 62/106/33 61/104/33
f 58/100/4 64/112/4 60/102/4
f 57/99/34 60/102/34 59/101/34
f 61/104/35 58/100/35 57/99/35
f 69/117/1 65/113/1 67/115/1
f 67/115/36 68/116/36 72/125/36
f 71/123/37 72/124/37 70/120/37
f 66/114/4 70/119/4 72/126/4
f 65/113/38 66/114/38 68/116/38
f 69/118/39 70/120/39 66/114/39
f 69/117/1 67/115/1 71/121/1
f 67/115/36 72/125/36 71/122/36
f 71/123/37 70/120/37 69/118/37
f 66/114/4 72/126/4 68/116/4
f 65/113/38 68/116/38 67/115/38
f 69/118/39 66/114/39 65/113/39
f 77/131/1 73/127/1 75/129/1
f 75/129/40 76/130/40 80/139/40
f 79/137/41 80/138/41 78/134/41
f 74/128/4 78/133/4 80/140/4
f 73/127/42 74/128/42 76/130/42
f 77/132/43 78/134/43 74/128/43
f 77/131/1 75/129/1 79/135/1
f 75/129/40 80/139/40 79/136/40
f 79/137/41 78/134/41 77/132/41
f 74/128/4 80/140/4 76/130/4
f 73/127/42 76/130/42 75/129/42
f 77/132/43 74/128/43 73/127/43
f 85/145/1 81/141/1 83/143/1
f 83/143/44 84/144/44 88/153/44
f 87/151/45 88/152/45 86/148/45
f 82/142/4 86/147/4 88/154/4
f 81/141/46 82/142/46 84/144/46
f 85/146/47 86/148/47 82/142/47
f 85/145/1 83/143/1 87/149/1
f 83/143/44 88/153/44 87/150/44
f 87/151/45 86/148/45 85/146/45
f 82/142/4 88/154/4 84/144/4
f 81/141/46 84/144/46 83/143/46
f 85/146/47 82/142/47 81/141/47
f 93/159/1 89/155/1 91/157/1
f 91/157/48 92/158/48 96/167/48
f 95/165/49 96/166/49 94/162/49
f 90/156/4 94/161/4 96/168/4
f 89/155/50 90/156/50 92/158/50
f 93/160/51 94/162/51 90/156/51
f 93/159/1 91/157/1 95/163/1
f 91/157/48 96/167/48 95/164/48
f 95/165/49 94/162/49 93/160/49
f 90/156/4 96/168/4 92/158/4
f 89/155/50 92/158/50 91/157/50
f 93/160/51 90/156/51 89/155/51
f 101/173/4 99/171/4 97/169/4
f 99/171/52 104/181/52 100/172/52
f 103/179/53 102/176/53 104/180/53
f 98/170/1 104/182/1 102/175/1
f 97/169/54 100/172/54 98/170/54
f 101/174/55 98/170/55 102/176/55
f 101/173/4 103/177/4 99/171/4
f 99/171/52 103/178/52 104/181/52
f 103/179/53 101/174/53 102/176/53
f 98/170/1 100/172/1 104/182/1
f 97/169/54 99/171/54 100/172/54
f 101/174/55 97/169/55 98/170/55
